:SAMPLES-PER-SECOND 30
:FULLY-SPECIFIED
:DEGREES
483
root  -2.77054 40.9516 1.07039 163.533 -87.0102 -162.847
RightUpLeg  3.6911 0.0545251 0.238515
RightLeg  -3.15557 -14.9638 0.65458
RightFoot  -0.392098 -0.204637 2.09292
RightToes  -3.10678e-008 1.75238e-005 3.56266e-009
Spine  -5.0843 0.79893 -2.69557
Spine1  4.86048 0.0329798 4.20127
HEad  -7.59926 -5.82479 -0.805843
LeftShoulder1  2.90564 -5.4101 -26.4896
LeftArm  -24.4023 -31.4125 -57.1689
LeftForeArm  78.8754 -9.49986 0.00746542
LeftHand  -0.921672 -0.0953008 19.5051
RightShoulder  3.50051 6.67742 28.4303
RightArm  -27.3044 -5.96079 46.1604
RightForeArm  71.188 4.56937 3.98061
RightHand  -0.0919691 5.37559 -1.28792
LeftUpLeg  3.18899 1.18005 2.2279
LeftLeg  -1.97671 17.0548 -0.675385
LeftFoot  -0.797962 0.19052 -2.02083
LeftToes  4.76857e-008 1.46588e-008 1.31384e-009
484
root  -2.78223 40.9552 1.03851 156.356 -89.8677 -155.462
RightUpLeg  3.70678 -0.262392 -0.0460325
RightLeg  -3.02366 -17.4611 0.71813
RightFoot  -0.712182 -0.211125 2.19155
RightToes  -3.10678e-008 1.75238e-005 3.56266e-009
Spine  -4.88781 0.211835 -4.20586
Spine1  4.92047 -0.750606 5.6703
HEad  -8.70269 -7.6841 -1.48433
LeftShoulder1  2.70126 -5.1172 -25.1656
LeftArm  -20.0694 -41.655 -61.1297
LeftForeArm  74.4828 -19.5179 -1.54199
LeftHand  -1.01908 -0.655256 19.6026
RightShoulder  3.58553 6.67176 29.303
RightArm  -32.2294 -19.4518 45.5022
RightForeArm  79.9817 3.07549 0.670593
RightHand  0.0764489 4.97259 0.543866
LeftUpLeg  2.5979 0.971582 2.01693
LeftLeg  -1.94978 14.4334 -0.775131
LeftFoot  -0.585805 0.180016 -1.92504
LeftToes  4.76857e-008 1.46588e-008 1.31384e-009
485
root  -2.82756 40.9542 1.03161 6.70093 -87.876 -5.56689
RightUpLeg  3.72271 -0.651481 -0.327021
RightLeg  -2.9882 -19.1892 0.978585
RightFoot  -0.970049 -0.216119 2.26609
RightToes  -3.10678e-008 1.75238e-005 3.56266e-009
Spine  -4.76133 -0.546353 -5.33718
Spine1  5.29875 -1.7584 7.02162
HEad  -10.2225 -8.18775 -1.82371
LeftShoulder1  2.22252 -3.9919 -23.3706
LeftArm  -20.4229 -51.7168 -66.6473
LeftForeArm  75.4956 -25.6324 -1.96348
LeftHand  -0.894038 0.215105 20.0694
RightShoulder  3.70277 6.99579 29.3259
RightArm  -35.6939 -32.4211 45.999
RightForeArm  84.6137 3.54718 -0.94475
RightHand  0.10865 4.57665 0.970929
LeftUpLeg  2.04648 0.818748 1.86525
LeftLeg  -1.75916 12.4366 -0.780957
LeftFoot  -0.505184 0.165225 -1.73833
LeftToes  4.76857e-008 1.46588e-008 1.31384e-009
486
root  -2.89089 40.9497 1.03065 0.338074 -86.3298 1.01282
RightUpLeg  3.83275 -0.836923 -0.42667
RightLeg  -3.17898 -20.625 1.19047
RightFoot  -1.1111 -0.216416 2.26665
RightToes  -3.10678e-008 1.75238e-005 3.56266e-009
Spine  -4.81085 -1.43919 -5.96872
Spine1  5.83032 -2.88738 8.00642
HEad  -12.0008 -8.32426 -2.31602
LeftShoulder1  1.55606 -2.07326 -21.5333
LeftArm  -19.9793 -61.3939 -71.4549
LeftForeArm  75.7028 -27.882 -2.47926
LeftHand  -0.798285 1.02385 21.1359
RightShoulder  3.47805 6.85111 27.6203
RightArm  -38.3635 -43.7498 48.92
RightForeArm  83.0324 5.19356 -0.630857
RightHand  0.214043 4.76045 2.15499
LeftUpLeg  1.6697 0.731725 1.78694
LeftLeg  -1.65643 10.9727 -0.779162
LeftFoot  -0.48999 0.152863 -1.5765
LeftToes  4.76857e-008 1.46588e-008 1.31384e-009
487
root  -2.93662 40.9482 1.04953 -1.51996 -85.6701 3.02243
RightUpLeg  3.71224 -1.01757 -0.638701
RightLeg  -2.93769 -21.1378 1.16753
RightFoot  -1.33179 -0.238133 2.59837
RightToes  -3.10678e-008 1.75238e-005 3.56266e-009
Spine  -5.18362 -2.06667 -5.69613
Spine1  6.37742 -3.47258 7.57565
HEad  -13.0204 -7.72073 -2.50259
LeftShoulder1  1.1255 -0.779284 -19.8254
LeftArm  -17.7247 -68.224 -73.2896
LeftForeArm  74.6527 -29.683 -2.86996
LeftHand  -0.804292 0.867473 20.6028
RightShoulder  3.5904 7.45285 26.754
RightArm  -41.2295 -52.5002 52.346
RightForeArm  82.3695 6.59199 -0.226886
RightHand  0.335077 4.69174 3.55807
LeftUpLeg  1.46103 0.561793 1.59304
LeftLeg  -1.57196 10.466 -0.750298
LeftFoot  -0.491365 0.154942 -1.63542
LeftToes  4.76857e-008 1.46588e-008 1.31384e-009
488
root  -2.93466 40.947 1.08328 -1.48157 -85.5565 3.0108
RightUpLeg  3.68473 -1.1375 -0.744293
RightLeg  -2.9081 -21.15 1.23755
RightFoot  -1.37224 -0.239807 2.61441
RightToes  -3.10678e-008 1.75238e-005 3.56266e-009
Spine  -4.4377 -2.32345 -4.45766
Spine1  5.64741 -3.47396 6.09729
HEad  -12.9479 -6.85645 -2.5295
LeftShoulder1  0.799005 0.366327 -18.8624
LeftArm  -14.9984 -73.6287 -73.6346
LeftForeArm  73.5327 -31.021 -3.18281
LeftHand  -0.788197 0.350097 18.1632
RightShoulder  3.81247 8.09055 26.8633
RightArm  -44.334 -58.2162 55.2123
RightForeArm  80.6195 7.15315 -0.119362
RightHand  0.431329 4.87105 4.5707
LeftUpLeg  1.1907 0.540871 1.5462
LeftLeg  -1.10913 10.3244 -0.684897
LeftFoot  -0.648898 0.151602 -1.60822
LeftToes  4.76857e-008 1.46588e-008 1.31384e-009
489
root  -2.92107 40.9459 1.11126 -2.28012 -85.8382 3.84784
RightUpLeg  3.52789 -1.18335 -0.85131
RightLeg  -2.75912 -20.8592 1.16255
RightFoot  -1.39575 -0.247438 2.72242
RightToes  -3.10678e-008 1.75238e-005 3.56266e-009
Spine  -4.58937 -2.21861 -3.57927
Spine1  6.06991 -3.21449 5.07907
HEad  -13.0278 -6.43908 -2.26155
LeftShoulder1  0.52572 1.35182 -17.8314
LeftArm  -14.135 -76.5722 -70.5594
LeftForeArm  70.5815 -32.7265 -3.63773
LeftHand  -0.797553 0.174836 17.7867
RightShoulder  4.10545 8.77124 27.4513
RightArm  -46.4204 -60.5628 57.0463
RightForeArm  79.8158 7.30652 -0.274314
RightHand  0.473362 5.12042 4.91312
LeftUpLeg  1.10284 0.588751 1.50179
LeftLeg  -0.984237 10.5274 -0.783973
LeftFoot  -0.686268 0.143391 -1.49996
LeftToes  4.76857e-008 1.46588e-008 1.31384e-009
